<svg fill="#b3b3b3" height="512pt" viewBox="0 -37 512.00002 512" width="512pt" xmlns="http://www.w3.org/2000/svg"><path d="m241.71875 248.300781c-1.363281-.933593-2.972656-1.4375-4.625-1.445312-1.433594.015625-2.84375.378906-4.105469 1.054687-2.722656 1.421875-4.425781 4.242188-4.417969 7.3125v74.640625c-.007812 3.074219 1.695313 5.894531 4.417969 7.316407 2.753907 1.523437 6.128907 1.367187 8.730469-.402344l56.257812-37.320313c2.332032-1.542969 3.734376-4.152343 3.734376-6.949219 0-2.796874-1.402344-5.40625-3.734376-6.949218zm0 0"/><path d="m256 201.144531c-50.496094 0-91.429688 40.933594-91.429688 91.425781 0 50.496094 40.933594 91.429688 91.429688 91.429688s91.429688-40.933594 91.429688-91.429688c-.054688-50.46875-40.957032-91.371093-91.429688-91.425781zm52.113281 113.609375-56.246093 37.328125c-8.195313 5.46875-18.738282 5.984375-27.429688 1.34375-8.691406-4.636719-14.128906-13.679687-14.152344-23.53125v-74.644531c.03125-9.839844 5.464844-18.871094 14.144532-23.503906 8.679687-4.636719 19.207031-4.132813 27.402343 1.316406l56.28125 37.320312c7.445313 4.925782 11.921875 13.257813 11.921875 22.183594 0 8.925782-4.476562 17.257813-11.921875 22.1875zm0 0"/><path d="m448 109.714844c0-20.199219-16.375-36.570313-36.570312-36.570313h-310.859376c-20.195312 0-36.570312 16.371094-36.570312 36.570313v18.285156h384zm0 0"/><path d="m466.285156 146.285156h-420.570312c-25.234375.03125-45.683594 20.480469-45.714844 45.714844v201.144531c.03125 25.234375 20.480469 45.683594 45.714844 45.710938h420.570312c25.234375-.027344 45.683594-20.476563 45.714844-45.710938v-201.144531c-.03125-25.234375-20.480469-45.683594-45.714844-45.714844zm-210.285156 256c-60.59375 0-109.714844-49.121094-109.714844-109.714844s49.121094-109.714843 109.714844-109.714843 109.714844 49.121093 109.714844 109.714843c-.066406 60.566407-49.148438 109.648438-109.714844 109.714844zm0 0"/><path d="m393.144531 36.570312c0-20.195312-16.375-36.570312-36.574219-36.570312h-201.140624c-20.199219 0-36.574219 16.375-36.574219 36.570312v18.285157h274.289062zm0 0"/></svg>
